#!OML:ASF F:\VICON\USERDATA\INSTALL\rory3\rory3.ASF
:FULLY-SPECIFIED
:DEGREES
1760
root 2.68958 16.8184 5.51602 19.2515 -3.5663 6.71107
lowerback -2.28335 -6.00159 -2.21446
upperback -8.17691 -8.17738 -0.275817
thorax -7.00403 -3.96098 1.23246
lowerneck -8.70838 -11.5438 -14.3828
upperneck 21.7085 -15.0086 5.65534
head 9.86496 -7.66753 2.4302
rclavicle -4.81307e-014 -2.38542e-015
rhumerus -49.0179 5.5702 -81.9819
rradius 80.5954
rwrist 11.2334
rhand -21.9642 -31.5389
rfingers 7.12502
rthumb 4.4433 -781.472
lclavicle -4.81307e-014 -2.38542e-015
lhumerus -47.132 -16.4296 87.5982
lradius 77.4001
lwrist 0.704705
lhand -32.2068 -42.708
lfingers 7.12502
lthumb -5.44838 -12.798
rfemur -36.5619 4.02204 30.4634
rtibia 44.3411
rfoot -14.673 -11.2927
rtoes 6.67167
lfemur -68.2657 9.05711 -14.4921
ltibia 129.362
lfoot -18.4336 0.203025
ltoes -7.33431
1761
root 2.71972 16.6236 5.49894 18.7585 -4.25081 7.06356
lowerback -1.61229 -5.90427 -2.91775
upperback -7.94419 -8.08086 -0.301821
thorax -7.04861 -3.8651 1.64001
lowerneck -9.29299 -11.5957 -14.0412
upperneck 21.532 -14.9656 5.35659
head 9.85031 -7.63078 2.25536
rclavicle -2.96562e-014 -2.69353e-014
rhumerus -48.3731 5.58697 -81.6006
rradius 80.5731
rwrist 11.3362
rhand -22.3553 -31.9238
rfingers 7.12502
rthumb 4.06572 -781.865
lclavicle -2.96562e-014 -2.69353e-014
lhumerus -46.7148 -16.156 87.6181
lradius 77.4477
lwrist 0.386484
lhand -32.4455 -43.6213
lfingers 7.12502
lthumb -5.6789 -13.7174
rfemur -37.4383 4.54221 30.0806
rtibia 46.8698
rfoot -16.7971 -12.075
rtoes 5.44082
lfemur -67.904 9.09658 -14.552
ltibia 128.603
lfoot -18.252 -0.101921
ltoes -5.43658
1762
root 2.74787 16.4131 5.42988 18.612 -4.37221 7.48431
lowerback -0.605999 -5.98414 -3.68893
upperback -7.92346 -8.25722 -0.246217
thorax -7.48699 -3.88401 2.2333
lowerneck -9.40283 -11.6009 -13.9432
upperneck 20.9652 -14.9654 5.49917
head 9.67151 -7.60134 2.29367
rclavicle -9.71312e-014 -1.33186e-014
rhumerus -47.6472 5.73405 -81.1906
rradius 80.5128
rwrist 11.5148
rhand -23.0064 -32.8162
rfingers 7.12502
rthumb 3.43692 -782.768
lclavicle -9.71312e-014 -1.33186e-014
lhumerus -46.3488 -15.9375 87.5449
lradius 77.6053
lwrist 0.00705619
lhand -32.2439 -44.7076
lfingers 7.12502
lthumb -5.48418 -14.7985
rfemur -39.0048 4.68057 29.87
rtibia 49.3586
rfoot -18.471 -13.1794
rtoes 2.89779
lfemur -68.9463 8.61471 -14.582
ltibia 128.196
lfoot -17.8371 -0.219182
ltoes -6.9573
1763
root 2.79899 16.2557 5.46287 18.258 -5.36612 5.81554
lowerback -0.809466 -5.57158 -1.95516
upperback -7.38139 -7.5953 0.0219635
thorax -6.99363 -3.67082 1.49099
lowerneck -9.52458 -11.615 -13.9259
upperneck 20.2366 -15.0271 5.97545
head 9.47992 -7.5743 2.448
rclavicle -1.01629e-013 -1.83876e-014
rhumerus -46.6525 6.04461 -80.8495
rradius 80.4782
rwrist 11.7554
rhand -23.8303 -34.006
rfingers 7.12502
rthumb 2.64129 -783.969
lclavicle -1.01629e-013 -1.83876e-014
lhumerus -45.8562 -15.7048 87.1751
lradius 77.7957
lwrist -0.556364
lhand -31.8604 -45.6638
lfingers 7.12502
lthumb -5.11393 -15.7455
rfemur -39.0565 5.42971 31.5763
rtibia 51.2421
rfoot -20.4035 -13.462
rtoes 3.33179
lfemur -67.8523 10.8364 -12.3776
ltibia 127.504
lfoot -19.2527 -0.465716
ltoes -7.12063
1764
root 2.84271 16.0835 5.42801 18.9574 -5.561 4.14283
lowerback -1.1484 -5.47682 -0.251718
upperback -7.26507 -7.38272 0.478165
thorax -6.83112 -3.65684 0.989589
lowerneck -9.7823 -11.6337 -13.8689
upperneck 19.6295 -15.0998 6.49923
head 9.35927 -7.54375 2.59988
rclavicle -9.58639e-014 7.65321e-015
rhumerus -45.5576 6.49946 -80.5636
rradius 80.6519
rwrist 12.1163
rhand -24.2922 -34.7893
rfingers 7.12502
rthumb 2.1952 -784.758
lclavicle -9.58639e-014 7.65321e-015
lhumerus -45.4166 -15.3547 86.5867
lradius 78.1328
lwrist -0.988003
lhand -31.5237 -45.8541
lfingers 7.12502
lthumb -4.78886 -15.9283
rfemur -40.5919 6.07243 33.4259
rtibia 53.0568
rfoot -21.714 -13.6888
rtoes 5.77968
lfemur -69.5074 12.4344 -10.0608
ltibia 127.343
lfoot -19.5107 -1.24272
ltoes -6.3231
1765
root 2.88186 15.9428 5.41399 19.106 -6.1246 2.78762
lowerback -1.17375 -5.28592 1.05322
upperback -7.03823 -7.07105 0.783239
thorax -6.69756 -3.56849 0.567523
lowerneck -9.72219 -11.5874 -13.8875
upperneck 18.9421 -15.0977 6.99458
head 9.15103 -7.49809 2.78292
rclavicle 4.25182e-014 3.6477e-014
rhumerus -44.5182 6.92052 -80.1536
rradius 81.0637
rwrist 12.5804
rhand -23.0978 -36.2553
rfingers 7.12502
rthumb 3.34867 -786.209
lclavicle 4.25182e-014 3.6477e-014
lhumerus -45.216 -14.904 85.9972
lradius 78.7737
lwrist -1.18157
lhand -31.2224 -45.4724
lfingers 7.12502
lthumb -4.4979 -15.5402
rfemur -41.2529 6.70179 34.9032
rtibia 54.5834
rfoot -22.5175 -14.1292
rtoes 5.81375
lfemur -70.1008 13.8309 -8.19906
ltibia 126.851
lfoot -19.7149 -1.80888
ltoes -5.11249
1766
root 2.90856 15.8236 5.39733 18.7645 -6.88789 2.47022
lowerback -0.803983 -5.10717 1.14906
upperback -6.71524 -6.81876 0.825899
thorax -6.56709 -3.44389 0.562906
lowerneck -9.71522 -11.6048 -13.9896
upperneck 18.296 -15.1389 7.39227
head 8.97297 -7.48625 2.93342
rclavicle 6.91149e-014 -3.37934e-015
rhumerus -43.4641 7.34723 -79.5372
rradius 81.7616
rwrist 12.6669
rhand -24.3701 -34.9975
rfingers 7.12502
rthumb 2.11992 -784.967
lclavicle 6.91149e-014 -3.37934e-015
lhumerus -45.0639 -14.5544 85.4819
lradius 79.777
lwrist -1.24219
lhand -31.0375 -44.9326
lfingers 7.12502
lthumb -4.31932 -14.9967
rfemur -41.5378 7.11989 35.3179
rtibia 56.1348
rfoot -22.9954 -14.9453
rtoes 4.26129
lfemur -69.978 14.2946 -7.62019
ltibia 126.061
lfoot -19.8427 -1.54771
ltoes -4.76451
1767
root 2.9255 15.7248 5.37103 17.9576 -7.75518 2.9811
lowerback 0.149041 -4.99149 0.218625
upperback -6.38178 -6.68966 0.720575
thorax -6.65878 -3.32433 1.02457
lowerneck -9.74398 -11.6547 -14.2065
upperneck 17.7394 -15.1967 7.75283
head 8.8424 -7.4924 3.0812
rclavicle 4.17448e-015 -9.69075e-015
rhumerus -42.4501 7.99257 -78.8135
rradius 82.6988
rwrist 12.4474
rhand -24.6349 -35.7795
rfingers 7.12502
rthumb 1.86418 -785.751
lclavicle 4.17448e-015 -9.69075e-015
lhumerus -44.9419 -14.273 85.0136
lradius 80.9819
lwrist -1.09594
lhand -30.7853 -44.4662
lfingers 7.12502
lthumb -4.07578 -14.5254
rfemur -41.6578 7.56143 34.7152
rtibia 57.5114
rfoot -23.88 -14.8158
rtoes 5.90494
lfemur -69.3937 13.8838 -7.99711
ltibia 125.017
lfoot -19.5751 -0.650728
ltoes -7.32487
1768
root 2.95262 15.6358 5.37687 17.5689 -7.86963 2.25532
lowerback 0.452251 -5.0225 0.988737
upperback -6.13558 -6.67969 1.00832
thorax -6.62518 -3.35023 0.917266
lowerneck -9.51227 -11.5803 -14.5456
upperneck 17.2645 -15.0898 8.04247
head 8.67934 -7.4446 3.26126
rclavicle -6.14617e-014 -1.0635e-014
rhumerus -41.618 9.04061 -78.0024
rradius 83.9015
rwrist 12.2248
rhand -24.513 -36.1794
rfingers 7.12502
rthumb 1.98195 -786.15
lclavicle -6.14617e-014 -1.0635e-014
lhumerus -44.9703 -13.8389 84.5931
lradius 82.2141
lwrist -0.884316
lhand -30.6228 -44.3096
lfingers 7.12502
lthumb -3.91886 -14.3659
rfemur -41.5994 7.57353 35.5673
rtibia 58.5802
rfoot -24.9858 -14.7448
rtoes 7.16801
lfemur -69.2663 13.587 -6.81104
ltibia 124.249
lfoot -19.5663 -0.330386
ltoes -9.19683
1769
root 2.97705 15.5714 5.41587 16.8889 -8.83242 1.98543
lowerback 0.552116 -4.80695 1.25436
upperback -5.74921 -6.37415 1.03268
thorax -6.29719 -3.21091 0.763348
lowerneck -9.55235 -11.4758 -14.5872
upperneck 17.0911 -14.8963 7.95169
head 8.60066 -7.36186 3.26664
rclavicle 6.00081e-015 1.85864e-014
rhumerus -40.7121 10.1892 -77.0936
rradius 85.2731
rwrist 12.0593
rhand -24.3668 -34.5167
rfingers 7.12502
rthumb 2.12311 -784.486
lclavicle 6.00081e-015 1.85864e-014
lhumerus -44.8476 -13.6124 84.1077
lradius 83.4116
lwrist -0.534015
lhand -30.6067 -43.9433
lfingers 7.12502
lthumb -3.90338 -13.9994
rfemur -40.8723 7.92283 35.8044
rtibia 59.4456
rfoot -25.8143 -15.1364
rtoes 6.60064
lfemur -68.16 13.8146 -6.37912
ltibia 123.344
lfoot -20.0132 0.155814
ltoes -9.43078
1770
root 2.99387 15.513 5.41467 16.2419 -9.02157 2.47523
lowerback 0.954827 -4.79788 0.89516
upperback -5.4498 -6.37806 0.860893
thorax -6.18898 -3.19666 0.801616
lowerneck -9.84084 -11.4898 -14.4399
upperneck 17.0381 -14.85 7.752
head 8.60019 -7.3379 3.17123
rclavicle 2.87741e-014 8.54774e-015
rhumerus -39.5176 11.081 -76.0359
rradius 86.5046
rwrist 12.0155
rhand -23.3316 -33.0743
rfingers 7.12502
rthumb 3.12284 -783.031
lclavicle 2.87741e-014 8.54774e-015
lhumerus -44.422 -13.9399 83.4876
lradius 84.5773
lwrist 0.0222195
lhand -30.6665 -43.6365
lfingers 7.12502
lthumb -3.9611 -13.6936
rfemur -40.6077 7.59228 35.4715
rtibia 60.2028
rfoot -25.9988 -16.2534
rtoes 4.17725
lfemur -68.3415 12.5783 -6.73715
ltibia 122.745
lfoot -19.7516 0.480542
ltoes -9.22671
1771
root 2.98663 15.4702 5.41895 15.4925 -9.43899 3.22531
lowerback 1.31377 -4.72261 -0.00292607
upperback -5.19165 -6.32203 0.653947
thorax -6.04494 -3.12921 1.09142
lowerneck -9.83841 -11.5353 -14.5998
upperneck 16.9569 -14.8806 7.76359
head 8.59024 -7.36007 3.19422
rclavicle -3.87133e-014 1.13307e-014
rhumerus -38.3124 12.0905 -74.8328
rradius 87.6779
rwrist 12.0254
rhand -20.742 -33.4219
rfingers 7.12502
rthumb 5.62343 -783.327
lclavicle -3.87133e-014 1.13307e-014
lhumerus -44.0903 -14.2803 82.7405
lradius 85.7717
lwrist 0.514068
lhand -30.7176 -43.6997
lfingers 7.12502
lthumb -4.01039 -13.7577
rfemur -40.3013 7.72341 34.8033
rtibia 60.8351
rfoot -26.1131 -17.0819
rtoes 3.16003
lfemur -68.4427 11.7356 -7.27781
ltibia 122.129
lfoot -19.1949 0.526361
ltoes -9.11539
1772
root 2.99019 15.4303 5.4064 15.2976 -9.26938 2.88994
lowerback 1.61602 -4.75427 0.426978
upperback -5.17995 -6.33638 0.776771
thorax -6.23899 -3.15063 1.01302
lowerneck -9.40665 -11.532 -15.0114
upperneck 16.7899 -14.9004 7.96798
head 8.51052 -7.38987 3.34327
rclavicle 3.23771e-014 -8.54774e-015
rhumerus -36.8687 12.849 -73.5518
rradius 88.3938
rwrist 12.4191
rhand -23.3905 -40.8588
rfingers 7.12502
rthumb 3.06598 -790.817
lclavicle 3.23771e-014 -8.54774e-015
lhumerus -43.8814 -14.6933 81.91
lradius 86.9129
lwrist 0.932457
lhand -30.5626 -43.6259
lfingers 7.12502
lthumb -3.86073 -13.6812
rfemur -40.4056 7.80228 35.2824
rtibia 61.2631
rfoot -26.4475 -17.2743
rtoes 4.45847
lfemur -69.4287 11.325 -6.57408
ltibia 121.871
lfoot -18.4206 0.575321
ltoes -10.6936
1773
root 2.995 15.4106 5.40926 15.0665 -9.06673 3.04045
lowerback 1.65017 -4.7531 0.600188
upperback -5.11919 -6.3321 0.650264
thorax -6.22799 -3.15998 0.788217
lowerneck -9.02694 -11.6102 -15.2056
upperneck 16.6561 -15.0535 8.10417
head 8.44422 -7.47366 3.41524
rclavicle 2.65129e-014 -1.33186e-014
rhumerus -36.0053 14.1188 -72.1614
rradius 89.9903
rwrist 12.5055
rhand -20.4561 -32.2571
rfingers 7.12502
rthumb 5.89948 -782.155
lclavicle 2.65129e-014 -1.33186e-014
lhumerus -43.4589 -15.6203 80.9687
lradius 87.9404
lwrist 1.36467
lhand -30.5093 -43.7563
lfingers 7.12502
lthumb -3.80929 -13.8106
rfemur -40.3761 7.65865 35.1979
rtibia 61.5061
rfoot -26.8398 -17.3037
rtoes 5.64355
lfemur -70.2848 10.4336 -6.56003
ltibia 121.666
lfoot -18.0635 0.911469
ltoes -11.4161
